<svg xmlns="http://www.w3.org/2000/svg" width="345" height="120" fill="none" viewBox="0 0 345 120"><path stroke="#fff" stroke-width="1.5" d="M.75 10A9.25 9.25 0 0 1 10 .75h325a9.25 9.25 0 0 1 9.25 9.25v100a9.25 9.25 0 0 1-9.25 9.25H10A9.25 9.25 0 0 1 .75 110V10Z"/><g clip-path="url(#clip0_998_17756)"><path fill="#fff" d="M215.118 54.38h-3.357c-.193 0-.385-.04-.561-.118a1.347 1.347 0 0 1-.461-.333l-1.362-1.493a1.096 1.096 0 0 0-1.6 0l-1.167 1.28a2.002 2.002 0 0 1-.679.49c-.26.114-.541.174-.826.174h-18.371a18.079 18.079 0 0 0-.997 4.566h17.341a1.14 1.14 0 0 0 .803-.336l1.619-1.64a1.098 1.098 0 0 1 .772-.317h.062a1.116 1.116 0 0 1 .803.348l1.362 1.494a1.387 1.387 0 0 0 1.022.451h14.148a17.81 17.81 0 0 0-.997-4.566h-7.554Zm-18.891 14.166a1.15 1.15 0 0 0 .803-.335l1.612-1.64a1.115 1.115 0 0 1 .772-.317h.069a1.12 1.12 0 0 1 .803.348l1.355 1.493a1.405 1.405 0 0 0 1.023.451h19.18a17.942 17.942 0 0 0 1.568-4.602h-18.414c-.192 0-.382-.04-.557-.117a1.358 1.358 0 0 1-.459-.328l-1.362-1.493c-.1-.111-.224-.2-.362-.261a1.102 1.102 0 0 0-.879 0c-.138.06-.26.15-.359.26l-1.167 1.28c-.19.208-.422.374-.683.487a2.074 2.074 0 0 1-.829.172h-12.347c.307 1.599.833 3.15 1.562 4.614l8.671-.012Zm13.608-19.158a1.153 1.153 0 0 0 .809-.335l1.613-1.634a1.088 1.088 0 0 1 .772-.323h.069c.151 0 .3.03.438.092.137.06.26.15.358.261l1.362 1.494a1.42 1.42 0 0 0 1.022.445h3.646a18.923 18.923 0 0 0-6.714-5.438 19.49 19.49 0 0 0-8.507-1.95c-2.953 0-5.865.667-8.507 1.95a18.923 18.923 0 0 0-6.714 5.438h20.353Zm-7.328 23.73h-4.988c-.192 0-.383-.04-.558-.119a1.336 1.336 0 0 1-.458-.332l-1.355-1.494a1.103 1.103 0 0 0-1.606 0l-1.174 1.305a1.987 1.987 0 0 1-.679.49 2.045 2.045 0 0 1-.826.174h-.076a19.047 19.047 0 0 0 6.33 4.347 19.509 19.509 0 0 0 7.589 1.534c2.611 0 5.195-.522 7.589-1.534a19.036 19.036 0 0 0 6.33-4.347l-16.118-.024Zm-81.975 4.687-3.871-9.143h-17.31l-3.871 9.143H91l16.977-34.586 17.034 34.586h-4.479Zm-19.72-12.611h14.336l-7.208-14.746-7.128 14.746Zm30.385 12.611V43.22h9.913c7.748 0 11.82 3.444 11.82 9.948 0 6.254-4.322 9.875-11.87 9.875h-5.684v14.763h-4.179Zm4.179-18.384h4.73c5.986 0 8.614-1.902 8.614-6.254 0-4.498-2.666-6.358-8.601-6.358h-4.743v12.612Zm32.725-12.514h-12.278v-3.712h28.728v3.712h-12.278v30.898h-4.172V46.907Zm61.453 24.59 3.595-2.372.276.561c2.215 3.913 4.63 5.486 8.301 5.486 4.078 0 6.945-2.737 6.945-6.065 0-3.127-1.612-5.23-8.05-7.82-7.397-2.981-9.912-6.06-9.912-10.46 0-4.792 3.877-8.534 10.565-8.534 4.931 0 8.3 2.048 10.214 5.376l-2.917 1.957-.854-.202c-1.512-2.291-3.375-3.614-6.543-3.614-3.871 0-6.136 2.103-6.136 4.937 0 2.64 1.455 4.157 7.748 6.943 8.2 3.615 10.214 6.595 10.214 11.386 0 5.23-4.63 9.68-11.224 9.68-5.534 0-9.355-2.054-12.222-7.235"/></g><defs><clipPath id="clip0_998_17756"><path fill="#fff" d="M91 42h162v37H91z"/></clipPath></defs></svg>