<svg xmlns="http://www.w3.org/2000/svg" width="345" height="120" fill="none" viewBox="0 0 345 120"><path stroke="#fff" stroke-width="1.5" d="M.75 10A9.25 9.25 0 0 1 10 .75h325a9.25 9.25 0 0 1 9.25 9.25v100a9.25 9.25 0 0 1-9.25 9.25H10A9.25 9.25 0 0 1 .75 110V10Z"/><g clip-path="url(#clip0_2589_14033)"><path fill="#fff" d="M87.305 37.18H43.536v39.843h43.769V37.18Z"/><path fill="#E84142" fill-rule="evenodd" d="M100.865 60.5c0 19.58-15.858 35.452-35.42 35.452-19.563 0-35.421-15.872-35.421-35.452s15.858-35.453 35.42-35.453c19.563 0 35.421 15.873 35.421 35.453ZM55.407 74.608h-6.874c-1.444 0-2.158 0-2.593-.279a1.75 1.75 0 0 1-.792-1.367c-.026-.514.33-1.141 1.044-2.395l16.974-29.945c.722-1.271 1.087-1.907 1.548-2.142a1.75 1.75 0 0 1 1.584 0c.461.235.827.87 1.549 2.142l3.49 6.097.017.03c.78 1.365 1.176 2.057 1.348 2.783a5.176 5.176 0 0 1 0 2.421c-.174.732-.565 1.428-1.357 2.813l-8.916 15.775-.023.04c-.785 1.376-1.183 2.073-1.734 2.599-.6.575-1.323.992-2.115 1.228-.722.2-1.531.2-3.15.2Zm17.36 0h9.85c1.453 0 2.184 0 2.62-.287.469-.305.765-.819.791-1.376.025-.497-.324-1.1-1.008-2.281l-.071-.123-4.934-8.448-.056-.095c-.693-1.174-1.043-1.766-1.493-1.995a1.731 1.731 0 0 0-1.575 0c-.452.235-.818.853-1.54 2.099l-4.916 8.448-.017.029c-.72 1.243-1.08 1.865-1.053 2.375.034.557.321 1.07.791 1.376.427.278 1.158.278 2.61.278Z" clip-rule="evenodd"/></g><path fill="#fff" d="M130.091 65.248h-9.086l-1.791 4.212h-3.479l8.178-18.2h3.322l8.203 18.2h-3.53l-1.817-4.212Zm-1.116-2.652-3.427-7.956-3.401 7.956h6.828ZM157.424 51.26l-7.918 18.2h-3.323l-7.943-18.2h3.66l6.049 14.04 6.1-14.04h3.375ZM174.567 65.248h-9.085l-1.792 4.212h-3.478l8.177-18.2h3.323l8.203 18.2h-3.531l-1.817-4.212Zm-1.116-2.652-3.427-7.956-3.4 7.956h6.827ZM186.25 51.26h3.374V66.6h9.501v2.86H186.25v-18.2ZM217.725 65.248h-9.085l-1.791 4.212h-3.479l8.177-18.2h3.323l8.203 18.2h-3.53l-1.818-4.212Zm-1.116-2.652-3.426-7.956-3.401 7.956h6.827ZM245.554 51.26v18.2h-2.777l-10.021-12.324V69.46h-3.348v-18.2h2.777l10.021 12.324V51.26h3.348ZM262.858 69.72c-1.834 0-3.496-.399-4.984-1.196a9.12 9.12 0 0 1-3.479-3.354c-.83-1.421-1.246-3.025-1.246-4.81 0-1.785.424-3.389 1.272-4.81a8.93 8.93 0 0 1 3.479-3.328c1.488-.815 3.15-1.222 4.984-1.222 1.488 0 2.847.26 4.076.78a8.319 8.319 0 0 1 3.115 2.262l-2.181 2.054c-1.315-1.421-2.933-2.132-4.854-2.132-1.246 0-2.363.277-3.349.832a5.802 5.802 0 0 0-2.31 2.262c-.554.97-.831 2.071-.831 3.302 0 1.23.277 2.331.831 3.302a5.983 5.983 0 0 0 2.31 2.288c.986.537 2.103.806 3.349.806 1.921 0 3.539-.72 4.854-2.158l2.181 2.08a8.27 8.27 0 0 1-3.141 2.262c-1.229.52-2.588.78-4.076.78ZM293.479 51.26v18.2h-3.375v-7.8h-9.397v7.8h-3.375v-18.2h3.375v7.514h9.397V51.26h3.375ZM316 66.626v2.834h-13.629v-18.2h13.266v2.834h-9.891v4.732h8.774v2.782h-8.774v5.018H316Z"/><defs><clipPath id="clip0_2589_14033"><path fill="#fff" d="M30 25h70.889v71H30z"/></clipPath></defs></svg>