<svg xmlns="http://www.w3.org/2000/svg" width="347" height="120" fill="none" viewBox="0 0 347 120"><path stroke="#fff" stroke-width="1.5" d="M.755 10.72a9.25 9.25 0 0 1 9.25-9.25h325.998a9.25 9.25 0 0 1 9.25 9.25v99.162a9.25 9.25 0 0 1-9.25 9.25H10.005a9.25 9.25 0 0 1-9.25-9.25V10.721Z"/><g clip-path="url(#clip0_4649_70511)"><path fill="#F3BA2F" d="m60.606 50.363 9.818-9.631 9.822 9.639 5.71-5.607-15.532-15.246L54.892 44.76l5.714 5.603ZM44.871 55.336l5.667-5.619 5.668 5.619-5.668 5.619-5.667-5.62ZM60.611 59.313l9.815 9.636 9.819-9.64 5.711 5.6-.004.004-15.526 15.249L54.9 64.92l-.008-.008 5.72-5.6ZM83.952 55.336l5.669-5.617 5.668 5.617-5.668 5.617-5.669-5.617Z"/><path fill="#F3BA2F" d="m76.933 55.333-6.006-5.956-4.441 4.401-.514.505-1.051 1.042-.008.008.008.012 6.006 5.948 6.006-5.956.005-.004h-.005Z"/><path fill="#fff" d="M104.996 41.434h12.589c3.123 0 5.485.799 7.087 2.396a6.194 6.194 0 0 1 1.399 2.073c.319.777.475 1.61.458 2.449v.076a6.582 6.582 0 0 1-.287 2.029 6.233 6.233 0 0 1-.773 1.598 5.955 5.955 0 0 1-1.116 1.246c-.42.357-.881.665-1.372.919a9.18 9.18 0 0 1 3.71 2.396c.9 1.012 1.351 2.41 1.351 4.194v.076a6.901 6.901 0 0 1-.716 3.22 6.305 6.305 0 0 1-2.051 2.3 9.795 9.795 0 0 1-3.216 1.379c-1.364.319-2.761.473-4.163.459h-12.9v-26.81Zm11.327 10.84a6.29 6.29 0 0 0 3.143-.67c.378-.219.687-.537.892-.92.204-.383.296-.814.265-1.246v-.076a2.344 2.344 0 0 0-.238-1.151 2.383 2.383 0 0 0-.769-.898c-.672-.471-1.642-.707-2.909-.707h-5.89v5.668h5.506Zm1.589 10.805a5.8 5.8 0 0 0 3.115-.707 2.413 2.413 0 0 0 1.125-2.205v-.076a2.497 2.497 0 0 0-.256-1.19 2.535 2.535 0 0 0-.792-.935c-.696-.532-1.82-.799-3.374-.799h-6.913v5.912h7.095ZM135.058 41.434h6.013v26.81h-6.013v-26.81ZM150.089 41.434h5.489l12.686 16.5v-16.5h5.875v26.81h-5.065l-13.101-17.043v17.044h-5.884V41.434ZM192.909 41.434h5.554l11.751 26.81h-6.298l-2.508-5.97h-11.595l-2.508 5.97h-6.151l11.755-26.81Zm6.347 15.67-3.652-8.636-3.635 8.635h7.287ZM216.227 41.434h5.49l12.682 16.5v-16.5h5.877v26.81h-5.067l-13.105-17.043v17.044h-5.877V41.434ZM261.225 69.237a14.266 14.266 0 0 1-5.551-1.073 13.42 13.42 0 0 1-4.416-2.933 13.28 13.28 0 0 1-2.919-4.402 14.081 14.081 0 0 1-1.047-5.417v-.076a13.871 13.871 0 0 1 3.96-9.813 13.453 13.453 0 0 1 4.451-2.995 14.656 14.656 0 0 1 5.741-1.093 18.185 18.185 0 0 1 3.471.308c.979.183 1.936.466 2.856.845.835.348 1.629.785 2.367 1.305.72.507 1.397 1.072 2.023 1.69l-3.799 4.34a14.455 14.455 0 0 0-3.237-2.23 8.352 8.352 0 0 0-3.706-.801 7.586 7.586 0 0 0-3.099.626 7.513 7.513 0 0 0-2.565 1.832 8.418 8.418 0 0 0-1.634 2.67 9.074 9.074 0 0 0-.579 3.248v.076a9.19 9.19 0 0 0 .579 3.243 8.506 8.506 0 0 0 1.618 2.687 7.465 7.465 0 0 0 2.558 1.858 7.53 7.53 0 0 0 3.106.64 8.373 8.373 0 0 0 3.937-.845 15.235 15.235 0 0 0 3.2-2.306l3.803 3.804a19.27 19.27 0 0 1-2.173 2.002 12.958 12.958 0 0 1-2.463 1.517c-.934.435-1.918.756-2.93.957a17.616 17.616 0 0 1-3.552.336ZM279.358 41.434h20.837v5.247H285.35v5.439h13.072v5.247H285.37v5.63h15.031v5.248H279.37l-.012-26.811Z"/></g><defs><clipPath id="clip0_4649_70511"><path fill="#fff" d="M44.871 29.518h255.53v50.644H44.871z"/></clipPath></defs></svg>