<svg xmlns="http://www.w3.org/2000/svg" width="345" height="120" fill="none" viewBox="0 0 345 120"><path stroke="#fff" stroke-width="1.5" d="M.75 10A9.25 9.25 0 0 1 10 .75h325a9.25 9.25 0 0 1 9.25 9.25v100a9.25 9.25 0 0 1-9.25 9.25H10A9.25 9.25 0 0 1 .75 110V10Z"/><g clip-path="url(#clip0_2589_13872)"><path fill="#F7931A" d="M110.597 65.947C107.641 78 95.631 85.336 83.772 82.33c-11.854-3.005-19.07-15.214-16.113-27.267 2.955-12.055 14.965-19.39 26.82-16.386 11.859 3.005 19.074 15.216 16.118 27.27Z"/><path fill="#fff" d="M98.888 57.298c.44-2.994-1.802-4.603-4.868-5.677l.995-4.055-2.429-.616-.968 3.95c-.639-.163-1.294-.315-1.946-.466l.975-3.975-2.427-.615-.995 4.054a80.302 80.302 0 0 1-1.55-.37l.002-.013-3.35-.85-.645 2.636s1.802.42 1.764.446c.983.25 1.16.911 1.131 1.436l-1.133 4.62c.068.018.156.043.253.082-.081-.02-.168-.043-.257-.064l-1.588 6.472c-.12.303-.425.76-1.113.586.024.036-1.765-.448-1.765-.448l-1.206 2.826 3.16.8c.588.15 1.165.308 1.732.455l-1.005 4.102 2.426.615.995-4.058c.663.183 1.306.351 1.935.51l-.992 4.04 2.429.615 1.005-4.094c4.141.796 7.255.475 8.566-3.332 1.056-3.066-.053-4.834-2.232-5.987 1.587-.372 2.782-1.433 3.101-3.625Zm-5.549 7.91c-.75 3.065-5.828 1.408-7.474.992l1.334-5.434c1.646.418 6.925 1.245 6.14 4.441Zm.752-7.954c-.685 2.788-4.911 1.372-6.282 1.024l1.209-4.928c1.37.347 5.786.995 5.073 3.904ZM131.861 51.614c1.794 0 3.345.327 4.648.97a9.385 9.385 0 0 1 3.257 2.62c.855 1.103 1.491 2.393 1.902 3.872.408 1.483.613 3.077.613 4.783 0 2.621-.473 5.098-1.427 7.432-.953 2.338-2.248 4.366-3.894 6.095-1.645 1.728-3.587 3.09-5.826 4.096-2.237 1.007-4.668 1.51-7.278 1.51-.338 0-.931-.01-1.77-.027a25.465 25.465 0 0 1-2.88-.254 33.314 33.314 0 0 1-3.447-.687 17.09 17.09 0 0 1-3.447-1.252l9.692-41.397 8.681-1.367-3.471 14.69c.743-.34 1.492-.604 2.239-.796a9.787 9.787 0 0 1 2.408-.288Zm-7.282 24.378a7.514 7.514 0 0 0 3.697-.969 9.779 9.779 0 0 0 3.001-2.59 13.13 13.13 0 0 0 1.987-3.675c.484-1.366.729-2.792.729-4.274 0-1.822-.3-3.243-.896-4.27-.597-1.023-1.702-1.538-3.306-1.538-.526 0-1.203.102-2.043.284-.842.193-1.596.595-2.272 1.199l-3.695 15.6c.223.04.42.079.588.114.165.039.347.066.528.085.192.022.411.033.676.033l1.006.001ZM151.283 82.201h-8.291l7.002-29.95h8.347l-7.058 29.95Zm4.034-33.6a5.088 5.088 0 0 1-3.137-1.051c-.939-.698-1.403-1.772-1.403-3.219 0-.796.159-1.542.474-2.247a6.012 6.012 0 0 1 1.263-1.823 6.2 6.2 0 0 1 1.819-1.226 5.48 5.48 0 0 1 2.216-.453 5.09 5.09 0 0 1 3.135 1.052c.931.705 1.399 1.779 1.399 3.218 0 .799-.158 1.548-.476 2.251a5.933 5.933 0 0 1-1.259 1.824 6.098 6.098 0 0 1-1.819 1.222 5.388 5.388 0 0 1-2.212.452ZM165.608 44.79l8.684-1.368-2.133 8.828h9.3l-1.679 6.946h-9.244l-2.463 10.476a12.02 12.02 0 0 0-.391 2.447c-.041.761.054 1.415.278 1.966.223.552.623.977 1.204 1.278.578.306 1.406.46 2.492.46.895 0 1.766-.087 2.609-.258a18.276 18.276 0 0 0 2.545-.711l.618 6.494c-1.12.418-2.333.777-3.641 1.08-1.309.306-2.859.453-4.651.453-2.575 0-4.572-.388-5.995-1.163-1.421-.78-2.425-1.845-3.026-3.193-.593-1.344-.858-2.893-.784-4.638.077-1.75.336-3.588.784-5.524l5.493-23.574ZM181.094 70.242c0-2.58.411-5.012 1.232-7.29.82-2.28 2-4.273 3.533-5.983 1.526-1.702 3.386-3.051 5.575-4.041 2.179-.984 4.619-1.48 7.307-1.48 1.683 0 3.186.161 4.508.485 1.328.327 2.53.75 3.617 1.28l-2.86 6.61a26.432 26.432 0 0 0-2.324-.826c-.802-.251-1.782-.372-2.94-.372-2.768 0-4.955.97-6.584 2.902-1.622 1.934-2.439 4.538-2.439 7.804 0 1.936.411 3.5 1.236 4.698.82 1.198 2.336 1.793 4.536 1.793 1.086 0 2.134-.115 3.137-.34a15.245 15.245 0 0 0 2.691-.854l.619 6.775a29.673 29.673 0 0 1-3.474 1.114c-1.271.316-2.784.48-4.539.48-2.317 0-4.277-.345-5.881-1.023-1.605-.69-2.931-1.604-3.976-2.763-1.05-1.161-1.803-2.518-2.27-4.074a16.977 16.977 0 0 1-.704-4.895ZM217.926 82.997c-1.979 0-3.697-.307-5.156-.914-1.453-.606-2.658-1.458-3.61-2.562-.954-1.098-1.668-2.4-2.157-3.9-.489-1.498-.724-3.158-.724-4.977 0-2.282.36-4.563 1.089-6.837.725-2.28 1.8-4.328 3.224-6.148 1.412-1.824 3.154-3.314 5.206-4.477 2.049-1.154 4.407-1.735 7.054-1.735 1.943 0 3.653.307 5.131.914 1.471.606 2.683 1.464 3.641 2.563.948 1.103 1.668 2.4 2.152 3.901.488 1.496.728 3.16.728 4.98 0 2.276-.355 4.556-1.061 6.838-.706 2.27-1.754 4.323-3.137 6.148-1.381 1.82-3.107 3.31-5.181 4.468-2.071 1.157-4.472 1.738-7.199 1.738Zm4.144-24.372c-1.229 0-2.316.363-3.246 1.08-.934.724-1.718 1.636-2.35 2.735a13.625 13.625 0 0 0-1.433 3.616c-.318 1.311-.474 2.55-.474 3.728 0 1.901.302 3.381.895 4.446.601 1.06 1.681 1.593 3.25 1.593 1.233 0 2.314-.36 3.25-1.084.928-.72 1.714-1.632 2.351-2.733a13.69 13.69 0 0 0 1.433-3.616c.313-1.307.473-2.553.473-3.73 0-1.895-.3-3.378-.899-4.442-.597-1.06-1.682-1.593-3.25-1.593ZM243.539 82.201h-8.298l7.002-29.95h8.352l-7.056 29.95Zm4.029-33.6a5.08 5.08 0 0 1-3.135-1.051c-.934-.698-1.403-1.772-1.403-3.219 0-.796.161-1.542.477-2.247a5.957 5.957 0 0 1 1.262-1.823 6.183 6.183 0 0 1 1.821-1.226 5.44 5.44 0 0 1 2.209-.453c1.159 0 2.206.35 3.139 1.052.933.705 1.404 1.779 1.404 3.218 0 .799-.168 1.548-.481 2.251a5.91 5.91 0 0 1-1.257 1.824 6.136 6.136 0 0 1-1.819 1.222 5.398 5.398 0 0 1-2.217.452ZM256.57 53.613c.63-.187 1.333-.412 2.097-.657a27.495 27.495 0 0 1 2.581-.678 30.45 30.45 0 0 1 3.191-.516c1.175-.135 2.514-.202 4.002-.202 4.373 0 7.387 1.295 9.051 3.876 1.663 2.581 1.951 6.114.872 10.591L274.55 82.2h-8.346l3.697-15.832c.225-.988.402-1.944.533-2.877.132-.926.124-1.741-.03-2.447a2.935 2.935 0 0 0-1.033-1.71c-.547-.436-1.374-.655-2.495-.655-1.081 0-2.181.118-3.304.346l-5.434 23.174h-8.349l6.781-28.585Z"/></g><defs><clipPath id="clip0_2589_13872"><path fill="#fff" d="M67 38h212v45H67z"/></clipPath></defs></svg>