<svg xmlns="http://www.w3.org/2000/svg" width="345" height="120" fill="none" viewBox="0 0 345 120"><rect width="343.5" height="118.5" x=".75" y=".75" stroke="#fff" stroke-width="1.5" rx="9.25"/><mask id="path-2-outside-1_5660_143406" width="169" height="32" x="112" y="41" fill="#000" maskUnits="userSpaceOnUse"><path fill="#fff" d="M112 41h169v32H112z"/><path fill-rule="evenodd" d="M128.049 63.41a.717.717 0 0 1-.204.486.676.676 0 0 1-.473.204h-12.99c.325 3.323 2.784 6.349 6.152 6.349a5.942 5.942 0 0 0 3.051-.703 6.172 6.172 0 0 0 2.312-2.17.646.646 0 0 1 .663-.377.637.637 0 0 1 .451.275.695.695 0 0 1-.001.782 7.425 7.425 0 0 1-2.789 2.661 7.143 7.143 0 0 1-3.706.863c-4.388 0-7.515-4.05-7.515-8.388s3.127-8.379 7.515-8.379c4.389 0 7.553 4.031 7.562 8.36l-.028.038Zm-1.401-.66c-.278-3.323-2.783-6.349-6.16-6.349-3.378 0-5.827 3.026-6.152 6.35h12.312Zm17.221-7.364a.659.659 0 0 1 .454.202.696.696 0 0 1 .195.469.667.667 0 0 1-.187.477.624.624 0 0 1-.462.194h-3.498V70.88a.705.705 0 0 1-.195.468.66.66 0 0 1-.455.202.648.648 0 0 1-.456-.2.69.69 0 0 1-.193-.47V56.727h-3.359a.613.613 0 0 1-.465-.19.654.654 0 0 1-.184-.48.696.696 0 0 1 .195-.469.659.659 0 0 1 .454-.202h3.359v-5.18a.68.68 0 0 1 .19-.474.64.64 0 0 1 .919 0c.121.126.19.296.19.474v5.2l3.498-.02Zm21.34 6.837v8.618a.7.7 0 0 1-.192.475.659.659 0 0 1-.458.205.622.622 0 0 1-.465-.197.664.664 0 0 1-.184-.483v-8.617c0-2.873-1.587-5.746-4.713-5.746-4.009 0-5.734 3.62-5.502 7.325v7.01a.697.697 0 0 1-.142.436.63.63 0 0 1-.924.102.66.66 0 0 1-.175-.237.694.694 0 0 1-.058-.292V42.67a.68.68 0 0 1 .19-.474.638.638 0 0 1 .918 0 .681.681 0 0 1 .191.474v15.934a6.41 6.41 0 0 1 2.268-2.504c.96-.61 2.06-.942 3.187-.962 3.832 0 6.022 3.466 6.022 7.124l.037-.038Zm23.372 1.188a.708.708 0 0 1-.202.488.664.664 0 0 1-.475.201h-13.073c.324 3.323 2.783 6.349 6.16 6.349 1.059.042 2.11-.2 3.05-.704a6.17 6.17 0 0 0 2.313-2.169.655.655 0 0 1 .361-.302.632.632 0 0 1 .709.22.665.665 0 0 1 .127.293.71.71 0 0 1-.083.469 7.447 7.447 0 0 1-2.791 2.658 7.161 7.161 0 0 1-3.704.866c-4.38 0-7.506-4.05-7.506-8.388s3.126-8.379 7.506-8.379c4.379 0 7.562 4.031 7.571 8.36l.037.038Zm-1.383-.613c-.287-3.323-2.783-6.349-6.16-6.349-3.378 0-5.836 3.026-6.161 6.349h12.321Zm17.397-6.703a.69.69 0 0 1-.153.495.654.654 0 0 1-.45.233c-3.832.574-5.567 3.83-5.567 7.555v6.435a.698.698 0 0 1-.161.531.663.663 0 0 1-.493.23.642.642 0 0 1-.493-.23.7.7 0 0 1-.161-.531V56.095a.707.707 0 0 1 .147-.437.664.664 0 0 1 .382-.243.628.628 0 0 1 .546.142.673.673 0 0 1 .233.529v2.987c1.067-1.915 3.22-3.667 5.456-3.667a.653.653 0 0 1 .468.167c.13.116.211.279.228.455l.018.067Zm21.415 7.402a.712.712 0 0 1-.202.488.668.668 0 0 1-.476.201H212.25c.325 3.323 2.783 6.349 6.161 6.349a5.952 5.952 0 0 0 3.05-.704 6.184 6.184 0 0 0 2.313-2.169.65.65 0 0 1 .361-.302.63.63 0 0 1 .709.221.663.663 0 0 1 .126.292.703.703 0 0 1-.083.47A7.447 7.447 0 0 1 222.096 71a7.16 7.16 0 0 1-3.704.866c-4.389 0-7.506-4.05-7.506-8.388s3.117-8.379 7.506-8.379 7.553 4.032 7.562 8.36l.056.038Zm-1.392-.66c-.288-3.324-2.784-6.35-6.161-6.35s-5.836 3.026-6.161 6.35h12.322Zm22.435-6.57v14.699a.702.702 0 0 1-.196.469.656.656 0 0 1-.454.201.61.61 0 0 1-.465-.19.654.654 0 0 1-.184-.48V68.17a6.266 6.266 0 0 1-2.168 2.731A5.98 5.98 0 0 1 240.335 72c-3.869 0-6.012-3.466-6.012-7.124v-8.618a.68.68 0 0 1 .19-.474.64.64 0 0 1 .919 0c.121.126.19.296.19.474v8.618c0 2.873 1.587 5.745 4.713 5.745 4.38 0 5.41-4.242 5.41-8.915V56.22a.678.678 0 0 1 .261-.537.638.638 0 0 1 .574-.105.69.69 0 0 1 .344.26c.085.122.13.27.129.42v.01Zm32.928 5.899v8.618a.699.699 0 0 1-.192.475.659.659 0 0 1-.457.205.62.62 0 0 1-.466-.197.683.683 0 0 1-.184-.483v-8.618c0-2.873-1.586-5.745-4.713-5.745-3.925 0-5.409 4.337-5.409 7.66v6.645a.704.704 0 0 1-.196.478.658.658 0 0 1-.463.202.622.622 0 0 1-.465-.197.664.664 0 0 1-.184-.483V62.11c0-2.873-1.578-5.746-4.704-5.746-3.972 0-5.567 3.227-5.456 7.517v6.818a.69.69 0 0 1-.149.441.652.652 0 0 1-1.11-.14.68.68 0 0 1-.059-.292V56.095a.698.698 0 0 1 .145-.439.658.658 0 0 1 .384-.24.633.633 0 0 1 .546.141.68.68 0 0 1 .234.529v2.45a6.357 6.357 0 0 1 2.276-2.471 6.099 6.099 0 0 1 3.179-.927 5.678 5.678 0 0 1 3.475 1.189 5.982 5.982 0 0 1 2.092 3.1 6.61 6.61 0 0 1 2.301-3.072 6.296 6.296 0 0 1 3.572-1.217c3.832 0 6.022 3.408 6.022 7.066l-.019-.038Z" clip-rule="evenodd"/></mask><path fill="#627EEA" fill-rule="evenodd" d="M128.049 63.41a.717.717 0 0 1-.204.486.676.676 0 0 1-.473.204h-12.99c.325 3.323 2.784 6.349 6.152 6.349a5.942 5.942 0 0 0 3.051-.703 6.172 6.172 0 0 0 2.312-2.17.646.646 0 0 1 .663-.377.637.637 0 0 1 .451.275.695.695 0 0 1-.001.782 7.425 7.425 0 0 1-2.789 2.661 7.143 7.143 0 0 1-3.706.863c-4.388 0-7.515-4.05-7.515-8.388s3.127-8.379 7.515-8.379c4.389 0 7.553 4.031 7.562 8.36l-.028.038Zm-1.401-.66c-.278-3.323-2.783-6.349-6.16-6.349-3.378 0-5.827 3.026-6.152 6.35h12.312Zm17.221-7.364a.659.659 0 0 1 .454.202.696.696 0 0 1 .195.469.667.667 0 0 1-.187.477.624.624 0 0 1-.462.194h-3.498V70.88a.705.705 0 0 1-.195.468.66.66 0 0 1-.455.202.648.648 0 0 1-.456-.2.69.69 0 0 1-.193-.47V56.727h-3.359a.613.613 0 0 1-.465-.19.654.654 0 0 1-.184-.48.696.696 0 0 1 .195-.469.659.659 0 0 1 .454-.202h3.359v-5.18a.68.68 0 0 1 .19-.474.64.64 0 0 1 .919 0c.121.126.19.296.19.474v5.2l3.498-.02Zm21.34 6.837v8.618a.7.7 0 0 1-.192.475.659.659 0 0 1-.458.205.622.622 0 0 1-.465-.197.664.664 0 0 1-.184-.483v-8.617c0-2.873-1.587-5.746-4.713-5.746-4.009 0-5.734 3.62-5.502 7.325v7.01a.697.697 0 0 1-.142.436.63.63 0 0 1-.924.102.66.66 0 0 1-.175-.237.694.694 0 0 1-.058-.292V42.67a.68.68 0 0 1 .19-.474.638.638 0 0 1 .918 0 .681.681 0 0 1 .191.474v15.934a6.41 6.41 0 0 1 2.268-2.504c.96-.61 2.06-.942 3.187-.962 3.832 0 6.022 3.466 6.022 7.124l.037-.038Zm23.372 1.188a.708.708 0 0 1-.202.488.664.664 0 0 1-.475.201h-13.073c.324 3.323 2.783 6.349 6.16 6.349 1.059.042 2.11-.2 3.05-.704a6.17 6.17 0 0 0 2.313-2.169.655.655 0 0 1 .361-.302.632.632 0 0 1 .709.22.665.665 0 0 1 .127.293.71.71 0 0 1-.083.469 7.447 7.447 0 0 1-2.791 2.658 7.161 7.161 0 0 1-3.704.866c-4.38 0-7.506-4.05-7.506-8.388s3.126-8.379 7.506-8.379c4.379 0 7.562 4.031 7.571 8.36l.037.038Zm-1.383-.613c-.287-3.323-2.783-6.349-6.16-6.349-3.378 0-5.836 3.026-6.161 6.349h12.321Zm17.397-6.703a.69.69 0 0 1-.153.495.654.654 0 0 1-.45.233c-3.832.574-5.567 3.83-5.567 7.555v6.435a.698.698 0 0 1-.161.531.663.663 0 0 1-.493.23.642.642 0 0 1-.493-.23.7.7 0 0 1-.161-.531V56.095a.707.707 0 0 1 .147-.437.664.664 0 0 1 .382-.243.628.628 0 0 1 .546.142.673.673 0 0 1 .233.529v2.987c1.067-1.915 3.22-3.667 5.456-3.667a.653.653 0 0 1 .468.167c.13.116.211.279.228.455l.018.067Zm21.415 7.402a.712.712 0 0 1-.202.488.668.668 0 0 1-.476.201H212.25c.325 3.323 2.783 6.349 6.161 6.349a5.952 5.952 0 0 0 3.05-.704 6.184 6.184 0 0 0 2.313-2.169.65.65 0 0 1 .361-.302.63.63 0 0 1 .709.221.663.663 0 0 1 .126.292.703.703 0 0 1-.083.47A7.447 7.447 0 0 1 222.096 71a7.16 7.16 0 0 1-3.704.866c-4.389 0-7.506-4.05-7.506-8.388s3.117-8.379 7.506-8.379 7.553 4.032 7.562 8.36l.056.038Zm-1.392-.66c-.288-3.324-2.784-6.35-6.161-6.35s-5.836 3.026-6.161 6.35h12.322Zm22.435-6.57v14.699a.702.702 0 0 1-.196.469.656.656 0 0 1-.454.201.61.61 0 0 1-.465-.19.654.654 0 0 1-.184-.48V68.17a6.266 6.266 0 0 1-2.168 2.731A5.98 5.98 0 0 1 240.335 72c-3.869 0-6.012-3.466-6.012-7.124v-8.618a.68.68 0 0 1 .19-.474.64.64 0 0 1 .919 0c.121.126.19.296.19.474v8.618c0 2.873 1.587 5.745 4.713 5.745 4.38 0 5.41-4.242 5.41-8.915V56.22a.678.678 0 0 1 .261-.537.638.638 0 0 1 .574-.105.69.69 0 0 1 .344.26c.085.122.13.27.129.42v.01Zm32.928 5.899v8.618a.699.699 0 0 1-.192.475.659.659 0 0 1-.457.205.62.62 0 0 1-.466-.197.683.683 0 0 1-.184-.483v-8.618c0-2.873-1.586-5.745-4.713-5.745-3.925 0-5.409 4.337-5.409 7.66v6.645a.704.704 0 0 1-.196.478.658.658 0 0 1-.463.202.622.622 0 0 1-.465-.197.664.664 0 0 1-.184-.483V62.11c0-2.873-1.578-5.746-4.704-5.746-3.972 0-5.567 3.227-5.456 7.517v6.818a.69.69 0 0 1-.149.441.652.652 0 0 1-1.11-.14.68.68 0 0 1-.059-.292V56.095a.698.698 0 0 1 .145-.439.658.658 0 0 1 .384-.24.633.633 0 0 1 .546.141.68.68 0 0 1 .234.529v2.45a6.357 6.357 0 0 1 2.276-2.471 6.099 6.099 0 0 1 3.179-.927 5.678 5.678 0 0 1 3.475 1.189 5.982 5.982 0 0 1 2.092 3.1 6.61 6.61 0 0 1 2.301-3.072 6.296 6.296 0 0 1 3.572-1.217c3.832 0 6.022 3.408 6.022 7.066l-.019-.038Z" clip-rule="evenodd"/><path stroke="#6880DD" stroke-width="2" d="M128.049 63.41a.717.717 0 0 1-.204.486.676.676 0 0 1-.473.204h-12.99c.325 3.323 2.784 6.349 6.152 6.349a5.942 5.942 0 0 0 3.051-.703 6.172 6.172 0 0 0 2.312-2.17.646.646 0 0 1 .663-.377.637.637 0 0 1 .451.275.695.695 0 0 1-.001.782 7.425 7.425 0 0 1-2.789 2.661 7.143 7.143 0 0 1-3.706.863c-4.388 0-7.515-4.05-7.515-8.388s3.127-8.379 7.515-8.379c4.389 0 7.553 4.031 7.562 8.36l-.028.038Zm-1.401-.66c-.278-3.323-2.783-6.349-6.16-6.349-3.378 0-5.827 3.026-6.152 6.35h12.312Zm17.221-7.364a.659.659 0 0 1 .454.202.696.696 0 0 1 .195.469.667.667 0 0 1-.187.477.624.624 0 0 1-.462.194h-3.498V70.88a.705.705 0 0 1-.195.468.66.66 0 0 1-.455.202.648.648 0 0 1-.456-.2.69.69 0 0 1-.193-.47V56.727h-3.359a.613.613 0 0 1-.465-.19.654.654 0 0 1-.184-.48.696.696 0 0 1 .195-.469.659.659 0 0 1 .454-.202h3.359v-5.18a.68.68 0 0 1 .19-.474.64.64 0 0 1 .919 0c.121.126.19.296.19.474v5.2l3.498-.02Zm21.34 6.837v8.618a.7.7 0 0 1-.192.475.659.659 0 0 1-.458.205.622.622 0 0 1-.465-.197.664.664 0 0 1-.184-.483v-8.617c0-2.873-1.587-5.746-4.713-5.746-4.009 0-5.734 3.62-5.502 7.325v7.01a.697.697 0 0 1-.142.436.63.63 0 0 1-.924.102.66.66 0 0 1-.175-.237.694.694 0 0 1-.058-.292V42.67a.68.68 0 0 1 .19-.474.638.638 0 0 1 .918 0 .681.681 0 0 1 .191.474v15.934a6.41 6.41 0 0 1 2.268-2.504c.96-.61 2.06-.942 3.187-.962 3.832 0 6.022 3.466 6.022 7.124l.037-.038Zm23.372 1.188a.708.708 0 0 1-.202.488.664.664 0 0 1-.475.201h-13.073c.324 3.323 2.783 6.349 6.16 6.349 1.059.042 2.11-.2 3.05-.704a6.17 6.17 0 0 0 2.313-2.169.655.655 0 0 1 .361-.302.632.632 0 0 1 .709.22.665.665 0 0 1 .127.293.71.71 0 0 1-.083.469 7.447 7.447 0 0 1-2.791 2.658 7.161 7.161 0 0 1-3.704.866c-4.38 0-7.506-4.05-7.506-8.388s3.126-8.379 7.506-8.379c4.379 0 7.562 4.031 7.571 8.36l.037.038Zm-1.383-.613c-.287-3.323-2.783-6.349-6.16-6.349-3.378 0-5.836 3.026-6.161 6.349h12.321Zm17.397-6.703a.69.69 0 0 1-.153.495.654.654 0 0 1-.45.233c-3.832.574-5.567 3.83-5.567 7.555v6.435a.698.698 0 0 1-.161.531.663.663 0 0 1-.493.23.642.642 0 0 1-.493-.23.7.7 0 0 1-.161-.531V56.095a.707.707 0 0 1 .147-.437.664.664 0 0 1 .382-.243.628.628 0 0 1 .546.142.673.673 0 0 1 .233.529v2.987c1.067-1.915 3.22-3.667 5.456-3.667a.653.653 0 0 1 .468.167c.13.116.211.279.228.455l.018.067Zm21.415 7.402a.712.712 0 0 1-.202.488.668.668 0 0 1-.476.201H212.25c.325 3.323 2.783 6.349 6.161 6.349a5.952 5.952 0 0 0 3.05-.704 6.184 6.184 0 0 0 2.313-2.169.65.65 0 0 1 .361-.302.63.63 0 0 1 .709.221.663.663 0 0 1 .126.292.703.703 0 0 1-.083.47A7.447 7.447 0 0 1 222.096 71a7.16 7.16 0 0 1-3.704.866c-4.389 0-7.506-4.05-7.506-8.388s3.117-8.379 7.506-8.379 7.553 4.032 7.562 8.36l.056.038Zm-1.392-.66c-.288-3.324-2.784-6.35-6.161-6.35s-5.836 3.026-6.161 6.35h12.322Zm22.435-6.57v14.699a.702.702 0 0 1-.196.469.656.656 0 0 1-.454.201.61.61 0 0 1-.465-.19.654.654 0 0 1-.184-.48V68.17a6.266 6.266 0 0 1-2.168 2.731A5.98 5.98 0 0 1 240.335 72c-3.869 0-6.012-3.466-6.012-7.124v-8.618a.68.68 0 0 1 .19-.474.64.64 0 0 1 .919 0c.121.126.19.296.19.474v8.618c0 2.873 1.587 5.745 4.713 5.745 4.38 0 5.41-4.242 5.41-8.915V56.22a.678.678 0 0 1 .261-.537.638.638 0 0 1 .574-.105.69.69 0 0 1 .344.26c.085.122.13.27.129.42v.01Zm32.928 5.899v8.618a.699.699 0 0 1-.192.475.659.659 0 0 1-.457.205.62.62 0 0 1-.466-.197.683.683 0 0 1-.184-.483v-8.618c0-2.873-1.586-5.745-4.713-5.745-3.925 0-5.409 4.337-5.409 7.66v6.645a.704.704 0 0 1-.196.478.658.658 0 0 1-.463.202.622.622 0 0 1-.465-.197.664.664 0 0 1-.184-.483V62.11c0-2.873-1.578-5.746-4.704-5.746-3.972 0-5.567 3.227-5.456 7.517v6.818a.69.69 0 0 1-.149.441.652.652 0 0 1-1.11-.14.68.68 0 0 1-.059-.292V56.095a.698.698 0 0 1 .145-.439.658.658 0 0 1 .384-.24.633.633 0 0 1 .546.141.68.68 0 0 1 .234.529v2.45a6.357 6.357 0 0 1 2.276-2.471 6.099 6.099 0 0 1 3.179-.927 5.678 5.678 0 0 1 3.475 1.189 5.982 5.982 0 0 1 2.092 3.1 6.61 6.61 0 0 1 2.301-3.072 6.296 6.296 0 0 1 3.572-1.217c3.832 0 6.022 3.408 6.022 7.066l-.019-.038Z" clip-rule="evenodd" mask="url(#path-2-outside-1_5660_143406)"/><path fill="#6880DD" d="m83.993 29-.415 1.413v40.996l.415.415 18.994-11.249L83.993 29Z"/><path fill="#9FB2FB" d="M83.995 29 65 60.575l18.995 11.249V29Z"/><path fill="#4D66C9" d="m83.994 75.426-.234.286v14.603l.234.685 19.005-26.816-19.005 11.242Z"/><path fill="#A8BAFF" d="M83.995 91V75.426L65 64.184 83.995 91Z"/><path fill="#4D66C9" d="m83.994 71.824 18.994-11.248-18.994-8.65v19.898Z"/><path fill="#4D66C9" d="m65 60.575 18.995 11.249V51.926L65 60.576Z"/></svg>