<svg xmlns="http://www.w3.org/2000/svg" width="347" height="120" fill="none" viewBox="0 0 347 120"><rect width="344.499" height="117.661" x=".759" y="1.471" stroke="#fff" stroke-width="1.5" rx="9.25"/><g clip-path="url(#clip0_4649_70577)"><path fill="#fff" d="m150.002 46.364 2.863 2.872c.954.958.954 2.873.954 4.788s0 3.83-.954 4.788c0 2.873-1.909 3.83-2.863 4.788-1.909 0-2.863.957-4.772.957-.955 0-1.909 0-2.863-.957-.955 0-1.909-.958-2.863-.958v9.575h-5.726V46.364h4.771l.955 1.915c1.908-1.915 3.817-2.873 6.68-2.873.955 0 2.863 0 3.818.958Zm-2.863 12.448c.954-.958 1.908-1.915 1.908-3.83s-.954-2.873-1.908-3.83c-.955-.958-1.909-.958-2.864-.958-.954 0-1.908 0-2.863.957-.954 0-.954.958-1.908 1.916v3.83c0 .957.954 1.915 1.908 1.915 0 .957.955.957 1.909.957 1.909 0 2.863 0 3.818-.957ZM157.777 50.37c.952-.992 1.904-2.979 3.808-2.979 1.904-.993 2.856-.993 4.76-.993s3.808 0 4.76.993c.952.994 2.856 1.986 3.808 3.973.952.992.952 2.979.952 4.965 0 1.986 0 2.979-.952 4.965-.952.993-1.904 2.979-3.808 2.979-.952.993-2.856.993-4.76.993s-3.808 0-4.76-.993-2.856-1.986-3.808-2.98c-.952-.992-.952-2.978-.952-4.965 0-2.979 0-4.965.952-5.958Zm5.712 8.938c.952.993 1.904.993 2.856.993s1.904-.993 2.856-.993.952-1.986.952-3.972 0-2.98-.952-3.972c-.952-.993-1.904-.993-2.856-.993s-1.904.992-2.856.992c-.952.993-.952 1.986-.952 3.973 0 .992 0 2.979.952 3.972ZM185.886 31.504V63.28h-6.013V31.504h6.013ZM208.933 46.398l-11.478 25.819h-5.739l3.826-9.563-7.652-16.256h6.695l4.783 10.519 4.783-10.519h4.782ZM229.977 46.364V63.6c0 1.915 0 2.872-.956 4.787-.957 1.915-1.913 1.915-3.827 2.873-1.913.957-3.826.957-5.739.957-.956 0-2.869 0-3.826-.957-.956 0-1.913-.958-2.869-.958-.957 0-1.913-.957-2.87-1.915l2.87-3.83c1.913 1.915 2.869 1.915 3.826 2.873.956.957 1.913.957 2.869.957.957 0 2.87 0 3.826-.957.957-.958.957-1.915.957-2.873v-2.873c-.957.958-.957 1.916-2.87 1.916-.956.957-2.869.957-3.826.957-.956 0-2.869 0-4.782-.957l-2.87-2.873c-.957-2.873-.957-3.83-.957-5.745s0-2.873.957-4.788 1.913-2.873 3.826-3.83c.957-.958 2.87-.958 3.826-.958.957 0 2.87 0 3.826.958.957 0 1.913.957 2.87 1.915l.956-.958h4.783v-.957Zm-5.739 10.533v-3.83c0-.958-.957-1.916-1.913-1.916-.957 0-1.913-.957-2.87-.957-.956 0-2.869.957-3.826.957-.956.958-.956 1.916-.956 3.83 0 .958 0 2.873.956 3.83.957.958 1.913 1.916 3.826 1.916 1.913-.958 3.826-1.915 4.783-3.83ZM234.887 50.371c.952-1.986 1.904-2.979 2.856-3.972 1.904-.993 2.856-.993 4.76-.993s3.808 0 4.76.993 2.856 1.986 3.808 2.98c.952 1.985.952 2.978.952 4.964 0 1.986 0 3.972-.952 4.965-.952 1.986-1.904 2.98-3.808 3.972-.952.993-2.856.993-4.76.993s-3.808 0-4.76-.993c-1.904-.993-2.856-1.986-3.808-2.979-.952-1.986-.952-2.979-.952-4.965 0-1.986.952-3.972 1.904-4.965Zm4.76 8.937c.952.993 1.904.993 2.856.993s1.904-.993 2.856-.993 1.904-2.979 1.904-3.972c0-1.986 0-2.979-.952-3.972-.952-.993-1.904-.993-2.856-.993s-1.904.993-2.856.993c-.952.993-.952 1.986-.952 3.972-.952.993 0 2.98 0 3.972ZM273.172 47.392c.949.993 1.899 1.986 1.899 3.972v13.902h-5.696V53.35c0-1.986-.95-2.979-2.848-2.979-.95 0-1.899.993-2.848 1.986-.95.993-1.899 2.98-1.899 4.965v6.951h-4.747V46.4h4.747v2.98l2.848-2.98c.949-.993 2.848-.993 3.797-.993 1.899 0 2.848.993 4.747 1.986Z"/><path fill="#8247E5" d="M109.491 45.698c-.948-.962-1.895-.962-2.842 0l-7.58 3.849-4.737 2.887-7.58 4.811c-.947.963-1.894.963-2.842 0l-6.632-3.849c-.947 0-.947-.962-.947-2.887v-6.736c0-.962.947-1.924 1.895-2.887L83.91 38c.948-.962 1.895-.962 2.843 0l5.684 2.887c.948.963 1.895 1.925 1.895 2.887v4.812l4.737-2.887v-4.812c0-.962-.947-1.924-1.895-2.887l-10.421-5.773c-.948-.963-1.895-.963-2.843 0l-11.369 5.773c-.947.963-1.894 1.925-1.894 2.887v12.51c0 1.925.947 2.887 1.894 2.887l11.37 6.736c.947.962 1.894.962 2.842 0l7.579-3.849 4.737-2.887 7.58-3.85c.947-.961 1.894-.961 2.842 0l5.684 2.888c.948 0 1.895.962 1.895 1.924v6.736c0 .963-.947 1.925-1.895 2.887l-5.684 3.85c-.948.962-1.895.962-2.842 0l-5.685-3.85c-.947 0-1.895-.962-1.895-1.924v-4.812l-4.737 2.887v4.812c0 .962.948 1.924 1.895 2.887l11.369 6.736c.947.962 1.895.962 2.842 0l11.369-6.736c0-.963.948-1.925.948-2.887V54.358c0-.962-.948-1.924-1.895-2.886l-11.369-5.774Z"/></g><defs><clipPath id="clip0_4649_70577"><path fill="#fff" d="M55.615 31.504h235.49v46.672H55.614z"/></clipPath></defs></svg>