<svg xmlns="http://www.w3.org/2000/svg" width="345" height="120" fill="none" viewBox="0 0 345 120"><rect width="343.5" height="118.5" x=".75" y=".75" stroke="#fff" stroke-width="1.5" rx="9.25"/><g clip-path="url(#clip0_2589_13794)"><path fill="url(#paint0_linear_2589_13794)" d="M92.973 73.73a2.098 2.098 0 0 1 1.484-.617h51.375c.936 0 1.404 1.134.742 1.797l-10.151 10.166a2.099 2.099 0 0 1-1.485.616H83.564c-.936 0-1.405-1.134-.743-1.797L92.973 73.73Z"/><path fill="url(#paint1_linear_2589_13794)" d="M92.973 35.75a2.098 2.098 0 0 1 1.484-.615h51.375c.936 0 1.404 1.134.742 1.797l-10.151 10.166a2.099 2.099 0 0 1-1.485.616H83.564c-.936 0-1.405-1.134-.743-1.797L92.973 35.75Z"/><path fill="url(#paint2_linear_2589_13794)" d="M136.423 54.62a2.099 2.099 0 0 0-1.485-.616H83.564c-.936 0-1.405 1.134-.743 1.797l10.152 10.166c.394.394.928.616 1.484.616h51.375c.936 0 1.404-1.134.742-1.797L136.423 54.62Z"/></g><path fill="#fff" d="M166.682 62.313h5.43c.763 0 1.381.7 1.381 1.563s-.618 1.563-1.381 1.563h-6.549a.4.4 0 0 0-.279.116l-1.978 1.915c-.303.293-.119.854.279.854h8.199c.004 0 .006-.004.006-.007 0-.004.003-.007.007-.007.103.01.208.014.313.014 2.175 0 3.938-1.992 3.938-4.448 0-2.333-1.59-4.246-3.613-4.433-.003 0-.006-.003-.006-.007 0-.005-.003-.008-.006-.008h-5.851c-.762 0-1.381-.7-1.381-1.563s.619-1.562 1.381-1.562h6.541a.403.403 0 0 0 .291-.129l1.836-1.914c.287-.3.1-.842-.291-.842H166.681v.001a3.122 3.122 0 0 0-.106-.001c-2.175 0-3.938 1.991-3.938 4.447 0 2.457 1.763 4.448 3.938 4.448l.106-.001.001.001ZM198.31 53.418c-.238 0-.43.217-.43.485v13.935c0 .269.192.486.43.486h9.943a.41.41 0 0 0 .314-.154l1.244-1.499c.258-.31.063-.817-.313-.817h-8.682c-.238 0-.43-.217-.43-.485V53.903c0-.268-.192-.485-.43-.485h-1.646Z"/><path fill="#fff" fill-rule="evenodd" d="m182.383 53.418-.001.001-.001.002c-1.271.061-2.292 1.21-2.347 2.64l-.001.002h-.001v9.374l.001.002.001.001a4.66 4.66 0 0 0-.002.119c0 1.486 1.042 2.698 2.349 2.762l.001.002H191.407v-.001h.001c1.306-.065 2.348-1.277 2.348-2.763 0-.04 0-.08-.002-.119l.001-.001.001-.001v-9.374l-.001-.002h-.001c-.055-1.431-1.075-2.58-2.346-2.642h-.001l-.001-.002h-9.023Zm1.682 2.645h-.001l-.001.001c-.794.039-1.432.761-1.466 1.661l-.001.001v5.897l.001.002-.001.074c0 .936.651 1.698 1.467 1.738h.001v.001H189.725v-.001c.817-.04 1.468-.802 1.468-1.738l-.001-.074v-.001h.001v-5.897h-.001v-.002c-.035-.9-.673-1.622-1.467-1.66v-.002h-5.66ZM224.269 67.838c0 .269.191.486.426.486h1.687c.235 0 .426-.218.426-.486V56.304l-.001-.001h-.001v-.001l.002-.12c0-1.486-1.032-2.698-2.326-2.762h-.001c0-.002-.001-.002-.002-.002h-8.661l-.002.001-.001.002a2.093 2.093 0 0 0-.104-.003c-1.344 0-2.433 1.238-2.433 2.765 0 .04 0 .08.002.119l-.001.001-.001.001v11.534c0 .269.19.486.426.486h1.686c.236 0 .426-.218.426-.486V63.04c0-.268.191-.485.427-.485h7.6c.235 0 .426.217.426.485v4.8Zm-8.453-7.933v-2.4c0-.93.664-1.683 1.482-1.683h5.49c.818 0 1.481.753 1.481 1.683v2.4c0 .268-.191.485-.426.485h-7.6c-.236 0-.427-.217-.427-.485ZM259.867 68.324c-.238 0-.431-.218-.431-.486V63.04c0-.268-.192-.485-.43-.485h-7.684c-.238 0-.43.217-.43.485v4.8c0 .267-.193.485-.43.485h-1.703c-.238 0-.431-.218-.431-.486V56.304h.001l.001-.001.001-.001a2.344 2.344 0 0 1-.003-.12c0-1.526 1.1-2.764 2.457-2.764.036 0 .071 0 .106.002h.001l.001-.002h8.756l.001.001.001.002c1.307.063 2.349 1.275 2.349 2.762a4.675 4.675 0 0 1-.001.12H262v11.535c0 .269-.193.486-.43.486h-1.703Zm-8.975-10.82v2.4c0 .269.192.486.43.486h7.684c.238 0 .43-.217.43-.485v-2.4c0-.93-.669-1.683-1.495-1.683h-5.554c-.826 0-1.495.753-1.495 1.683Z" clip-rule="evenodd"/><path fill="#fff" d="M233.156 53.418c.125 0 .244.062.325.17l7.563 10.126c.257.343.751.136.751-.315v-9.496c0-.268.19-.485.426-.485h1.686c.236 0 .426.217.426.485v13.935c0 .269-.19.486-.426.486h-2.096c-.009 0-.016-.008-.016-.019a.023.023 0 0 0-.004-.011l-7.69-10.055c-.259-.338-.748-.13-.748.32v9.28c0 .267-.191.485-.426.485h-1.697c-.236 0-.427-.218-.427-.486V53.903c0-.268.191-.485.427-.485h1.926Z"/><defs><linearGradient id="paint0_linear_2589_13794" x1="126.031" x2="90.352" y1="21.266" y2="89.455" gradientUnits="userSpaceOnUse"><stop stop-color="#00FFA3"/><stop offset="1" stop-color="#DC1FFF"/></linearGradient><linearGradient id="paint1_linear_2589_13794" x1="126.031" x2="90.352" y1="21.266" y2="89.456" gradientUnits="userSpaceOnUse"><stop stop-color="#00FFA3"/><stop offset="1" stop-color="#DC1FFF"/></linearGradient><linearGradient id="paint2_linear_2589_13794" x1="126.031" x2="90.352" y1="21.267" y2="89.456" gradientUnits="userSpaceOnUse"><stop stop-color="#00FFA3"/><stop offset="1" stop-color="#DC1FFF"/></linearGradient><clipPath id="clip0_2589_13794"><path fill="#fff" d="M83 33h93.457v54H83z"/></clipPath></defs></svg>